{"title":"House Husbands Season 3 Episode 6.mp4","uid":10660483,"size":166027982,"categoryP":"video","categoryS":"tv_shows","magnet":"?xt=urn:btih:702342231bac6881409b0358b6c03cc1a845adf1&amp;dn=House+Husbands+Season+3+Episode+6.mp4&amp;tr=udp%3A%2F%2Ftracker.openbittorrent.com%3A80&amp;tr=udp%3A%2F%2Fopen.demonii.com%3A1337&amp;tr=udp%3A%2F%2Ftracker.coppersurfer.tk%3A6969&amp;tr=udp%3A%2F%2Fexodus.desync.com%3A6969","seeders":2,"leechers":0,"uploader":"yousef86","files":-1,"time":1406718139,"description":"Season 3 Episode 6\n==================\nGemma is concerned after Lewis takes Belle on a trip to find their son. Kane finds himself torn between loyalty and love, after a former flame offers him work. Mark and Abi are shocked after their daughter is suspended from school.\n\nGeneral\n-------\nComplete name : House Husbands Season 3 Episode 6.mp4\nFormat : MPEG-4\nFormat profile : Base Media / Version 2\nCodec ID : mp42\nFile size : 158 MiB\nDuration : 42mn 9s\nOverall bit rate mode : Variable\nOverall bit rate : 525 Kbps\nEncoded date : UTC 2014-07-27 08:50:44\nTagged date : UTC 2014-07-27 08:50:44\ngsst : 0\ngstd : 2529953\ngssd : B4A7DDAC5HH1406631616776209\ngshh : r5---sn-4g57kuek.googlevideo.com\n\nVideo\n-----\nID : 1\nFormat : AVC\nFormat/Info : Advanced Video Codec\nFormat profile : &lt;a class=&quot;__cf_email__&quot; href=&quot;/cdn-cgi/l/email-protection&quot; data-cfemail=&quot;7f3d1e0c1a1316111a3f334c514f&quot;&gt;[email&amp;#160;protected]&lt;/a&gt;&lt;script cf-hash='f9e31' type=&quot;text/javascript&quot;&gt;\n/* &lt;![CDATA[ */!function(){try{var t=&quot;currentScript&quot;in document?document.currentScript:function(){for(var t=document.getElementsByTagName(&quot;script&quot;),e=t.length;e--;)if(t[e].getAttribute(&quot;cf-hash&quot;))return t[e]}();if(t&amp;&amp;t.previousSibling){var e,r,n,i,c=t.previousSibling,a=c.getAttribute(&quot;data-cfemail&quot;);if(a){for(e=&quot;&quot;,r=parseInt(a.substr(0,2),16),n=2;a.length-n;n+=2)i=parseInt(a.substr(n,2),16)^r,e+=String.fromCharCode(i);e=document.createTextNode(e),c.parentNode.replaceChild(e,c)}}}catch(u){}}();/* ]]&gt; */&lt;/script&gt;\nFormat settings, CABAC : No\nFormat settings, ReFrames : 1 frame\nCodec ID : avc1\nCodec ID/Info : Advanced Video Coding\nDuration : 42mn 9s\nBit rate : 427 Kbps\nMaximum bit rate : 1 507 Kbps\nWidth : 638 pixels\nHeight : 360 pixels\nDisplay aspect ratio : 16:9\nFrame rate mode : Constant\nFrame rate : 25.000 fps\nColor space : YUV\nChroma subsampling : 4:2:0\nBit depth : 8 bits\nScan type : Progressive\nBits/(Pixel*Frame) : 0.074\nStream size : 129 MiB (81%)\nTagged date : UTC 2014-07-27 08:51:05\n\nAudio\n-----\nID : 2\nFormat : AAC\nFormat/Info : Advanced Audio Codec\nFormat profile : LC\nCodec ID : 40\nDuration : 42mn 9s\nBit rate mode : Variable\nBit rate : 96.0 Kbps\nMaximum bit rate : 103 Kbps\nChannel(s) : 2 channels\nChannel positions : Front: L R\nSampling rate : 44.1 KHz\nCompression mode : Lossy\nStream size : 29.0 MiB (18%)\nTitle : IsoMedia File Produced by Google, 5-11-2011\nEncoded date : UTC 2014-07-27 08:50:56\nTagged date : UTC 2014-07-27 08:51:05","torrent":{"xt":"urn:btih:702342231bac6881409b0358b6c03cc1a845adf1","amp;dn":"House+Husbands+Season+3+Episode+6.mp4","amp;tr":["udp%3A%2F%2Ftracker.openbittorrent.com%3A80","udp%3A%2F%2Fopen.demonii.com%3A1337","udp%3A%2F%2Ftracker.coppersurfer.tk%3A6969","udp%3A%2F%2Fexodus.desync.com%3A6969"],"infoHash":"702342231bac6881409b0358b6c03cc1a845adf1","infoHashBuffer":{"type":"Buffer","data":[112,35,66,35,27,172,104,129,64,155,3,88,182,192,60,193,168,69,173,241]},"announce":[],"urlList":[]}}